<svg width="57" height="57" viewBox="0 0 57 57" fill="none" xmlns="http://www.w3.org/2000/svg">
<path fill-rule="evenodd" clip-rule="evenodd" d="M16.0027 49.5773C16.1421 37.1085 21.684 30 28.5 30C35.316 30 40.8579 37.1085 40.9973 49.5773C48.1838 45.3071 53 37.466 53 28.5C53 14.969 42.031 4 28.5 4C14.969 4 4 14.969 4 28.5C4 37.466 8.81622 45.3071 16.0027 49.5773ZM57 28.5C57 44.2401 44.2401 57 28.5 57C12.7599 57 0 44.2401 0 28.5C0 12.7599 12.7599 0 28.5 0C44.2401 0 57 12.7599 57 28.5ZM34.6142 28.3482C37.2731 26.399 38.9991 23.2557 38.9991 19.71C38.9991 13.795 34.1959 9 28.2709 9C22.3458 9 17.5426 13.795 17.5426 19.71C17.5426 23.2557 19.2686 26.399 21.9276 28.3482C23.7786 26.3984 25.9495 25.3801 28.2709 25.3801C30.5923 25.3801 32.7631 26.3984 34.6142 28.3482Z" fill="#A4DAF8"/>
</svg>
