<svg width="149" height="108" viewBox="0 0 149 108" fill="none" xmlns="http://www.w3.org/2000/svg">
<path fill-rule="evenodd" clip-rule="evenodd" d="M119.852 57.7113C117.963 81.3809 98.1557 100 74 100C67.3261 100 60.9841 98.5787 55.2603 96.0223C66.51 91.9195 78.6313 86.1155 90.7725 78.7701C101.713 72.1511 111.537 64.9656 119.852 57.7113ZM119.089 44.8447C110.274 53.3711 98.8833 62.1754 85.5962 70.2141C71.0524 79.0131 56.7507 85.3737 44.3165 89.1423C35.0139 81.2767 28.8766 69.7842 28.0866 56.8468L28.3773 48.0808C31.2818 25.4715 50.6005 8 74 8C78.4007 8 82.657 8.61795 86.687 9.77182C86.6865 9.77202 86.686 9.77221 86.6855 9.77241C88.7336 10.4891 91.4645 11.4928 93.906 12.5183C95.7901 13.4241 97.603 14.4545 99.334 15.5988C99.2432 15.6529 99.1522 15.7074 99.0609 15.7621C99.1749 15.7225 99.2887 15.6832 99.4023 15.644C109.386 22.2693 116.634 32.6885 119.089 44.8447ZM127.871 50.2323C144.614 33.4649 152.548 17.2447 146.802 7.74687C140.851 -2.09048 121.7 -2.2749 97.9401 5.5834C90.7253 2.0091 82.5972 0 74 0C44.2602 0 20.1356 24.0412 20.0006 53.7492C3.79821 70.2325 -3.79716 86.0909 1.85803 95.4383C7.30561 104.443 23.8112 105.36 44.7879 99.4242C53.2091 104.851 63.2368 108 74 108C103.823 108 128 83.8234 128 54C128 52.7334 127.956 51.4771 127.871 50.2323ZM35.1668 91.5232C28.6299 84.7596 23.844 76.293 21.5392 66.8537C20.7608 67.7682 20.0171 68.6749 19.3091 69.5724C14.6734 75.4486 11.9103 80.4958 10.7025 84.3819C9.4901 88.2829 10.1557 89.8349 10.414 90.2619C10.6723 90.6888 11.7382 91.9988 15.7563 92.7352C19.7591 93.4689 25.5121 93.3639 32.8686 91.9848C33.6237 91.8432 34.3899 91.6894 35.1668 91.5232ZM125.611 38.0665C122.534 28.0896 116.644 19.3467 108.867 12.7641C111.263 12.1375 113.575 11.6158 115.792 11.2004C123.148 9.8213 128.901 9.71622 132.904 10.4499C136.922 11.1864 137.988 12.4963 138.246 12.9233C138.504 13.3502 139.17 14.9023 137.958 18.8032C136.75 22.6893 133.987 27.7365 129.351 33.6127C128.198 35.0749 126.95 36.5615 125.611 38.0665Z" fill="#A4DAF8"/>
</svg>
