<svg width="160" height="128" viewBox="0 0 160 128" fill="none" xmlns="http://www.w3.org/2000/svg">
<path d="M156.656 17.488C154.816 10.608 149.392 5.184 142.512 3.344C130.032 1.66893e-06 80 0 80 0C80 0 29.968 1.66893e-06 17.488 3.344C10.608 5.184 5.184 10.608 3.344 17.488C-2.38419e-07 29.968 0 64 0 64C0 64 -2.38419e-07 98.032 3.344 110.512C5.184 117.392 10.608 122.816 17.488 124.656C29.968 128 80 128 80 128C80 128 130.032 128 142.512 124.656C149.4 122.816 154.816 117.392 156.656 110.512C160 98.032 160 64 160 64C160 64 160 29.968 156.656 17.488ZM64 91.712V36.288L112 64L64 91.712Z" fill="#A4DAF8"/>
</svg>
