<svg width="160" height="124" viewBox="0 0 160 124" fill="none" xmlns="http://www.w3.org/2000/svg">
<path d="M157.932 42.7905L141.704 53.0555C140.527 53.7652 139.136 54.029 137.782 53.7993C136.427 53.5696 135.2 52.8615 134.32 51.8029L126.259 41.644V118.669C126.257 120.005 125.726 121.286 124.785 122.231C123.843 123.176 122.566 123.709 121.234 123.711H38.8259C37.4941 123.709 36.2176 123.176 35.2759 122.231C34.3341 121.286 33.8038 120.005 33.801 118.669V41.5591L25.6659 51.8029C24.7871 52.8588 23.5614 53.5652 22.2096 53.7948C20.8579 54.0245 19.4688 53.7623 18.2925 53.0555L2.05414 42.7905C1.51146 42.4776 1.04751 42.0439 0.697955 41.5229C0.348399 41.0019 0.122541 40.4074 0.0377452 39.7852C-0.0470509 39.1629 0.0114717 38.5294 0.208814 37.9333C0.406157 37.3373 0.737065 36.7946 1.1761 36.347L24.9254 9.89351C27.7169 6.77972 31.1298 4.28979 34.9424 2.58536C38.7551 0.880918 42.8823 7.39924e-05 47.0562 0H56.9473C58.8836 4.53284 62.1027 8.39598 66.2057 11.1107C70.3088 13.8255 75.1155 15.2725 80.0302 15.2725C84.9449 15.2725 89.7516 13.8255 93.8547 11.1107C97.9577 8.39598 101.177 4.53284 103.113 0H112.994C117.17 0.00125061 121.299 0.883631 125.114 2.58988C128.928 4.29613 132.342 6.78812 135.135 9.90412L158.831 36.3364C159.27 36.7864 159.599 37.3313 159.795 37.9291C159.991 38.5269 160.047 39.1617 159.96 39.7849C159.874 40.4081 159.646 41.003 159.294 41.524C158.943 42.045 158.477 42.4783 157.932 42.7905Z" fill="#A4DAF8"/>
</svg>
